<?xml version="1.0" standalone="no"?><!DOCTYPE svg PUBLIC "-//W3C//DTD SVG 1.1//EN" "http://www.w3.org/Graphics/SVG/1.1/DTD/svg11.dtd"><svg t="1765508639160" class="icon" viewBox="0 0 1024 1024" version="1.1" xmlns="http://www.w3.org/2000/svg" p-id="11434" xmlns:xlink="http://www.w3.org/1999/xlink" width="200" height="200"><path d="M281.152824 360.588183m21.72232 21.722321l362.038672 362.038672q21.72232 21.72232 0 43.44464l0 0q-21.72232 21.72232-43.44464 0l-362.038672-362.038672q-21.72232-21.72232 0-43.44464l0 0q21.72232-21.72232 43.44464 0Z" fill="#ABE4FE" p-id="11435"></path><path d="M281.14944 447.46752l318.59712 318.59712c-246.89664 100.6592-386.88768 134.4512-419.97312 101.376-33.0752-33.08544 0.7168-173.07648 101.376-419.97312z" fill="#11BC68" p-id="11436"></path><path d="M241.31584 562.2272L488.76544 809.6768c-48.91648 18.2272-92.17024 32.89088-129.75104 44.02176L193.6896 688.384c11.10016-37.4784 25.72288-80.5888 43.86816-129.34144 1.3312 0.93184 2.58048 1.9968 3.75808 3.1744z" fill="#E30027" p-id="11437"></path><path d="M679.395068 324.374372m21.72232 21.72232l0 0q21.72232 21.72232 0 43.44464l-159.297016 159.297016q-21.72232 21.72232-43.44464 0l0 0q-21.72232-21.72232 0-43.44464l159.297016-159.297016q21.72232-21.72232 43.44464 0Z" fill="#ABE4FE" p-id="11438"></path><path d="M576.1024 574.44352c91.27936-4.9152 152.68864 21.97504 177.94048 82.70848a25.6 25.6 0 0 1-47.27808 19.6608c-15.52384-37.35552-56.064-55.11168-127.8976-51.24096a25.6 25.6 0 0 1-2.7648-51.12832zM474.05056 472.39168c4.9152-91.27936-21.97504-152.6784-82.69824-177.94048a25.6 25.6 0 0 0-19.6608 47.27808c37.35552 15.53408 55.11168 56.064 51.24096 127.8976a25.6 25.6 0 0 0 51.11808 2.7648z" fill="#ABE4FE" p-id="11439"></path><path d="M860.40576 642.9696m-25.6 0a25.6 25.6 0 1 0 51.2 0 25.6 25.6 0 1 0-51.2 0Z" fill="#FC9A24" p-id="11440"></path><path d="M766.27968 280.9344m-50.685414-50.685414a71.68 71.68 0 1 0 101.370828 101.370828 71.68 71.68 0 1 0-101.370828-101.370828Z" fill="#FC9A24" p-id="11441"></path><path d="M397.0048 179.56864m-25.6 0a25.6 25.6 0 1 0 51.2 0 25.6 25.6 0 1 0-51.2 0Z" fill="#FC9A24" p-id="11442"></path><path d="M766.27968 737.10592m-18.101934-18.101934a25.6 25.6 0 1 0 36.203868 36.203868 25.6 25.6 0 1 0-36.203868-36.203868Z" fill="#FC9A24" p-id="11443"></path><path d="M302.86848 273.69472m-18.101934-18.101934a25.6 25.6 0 1 0 36.203868 36.203868 25.6 25.6 0 1 0-36.203868-36.203868Z" fill="#FC9A24" p-id="11444"></path><path d="M655.90272 491.08992c118.26176-24.30976 189.85984-2.19136 198.57408 74.07616a25.6 25.6 0 0 1-50.60608 7.61856l-0.26624-1.80224c-4.1472-36.352-44.53376-48.83456-137.39008-29.73696a25.6 25.6 0 1 1-10.31168-50.15552zM557.12768 392.31488l1.65888-8.36608c21.57568-113.2544-1.28-181.69856-75.73504-190.19776a25.6 25.6 0 0 0-7.61856 50.59584l1.81248 0.26624c36.352 4.15744 48.82432 44.544 29.73696 137.39008a25.6 25.6 0 0 0 50.14528 10.31168z" fill="#ABE4FE" p-id="11445"></path></svg>