<?xml version="1.0" standalone="no"?><!DOCTYPE svg PUBLIC "-//W3C//DTD SVG 1.1//EN" "http://www.w3.org/Graphics/SVG/1.1/DTD/svg11.dtd"><svg t="1765509166617" class="icon" viewBox="0 0 1024 1024" version="1.1" xmlns="http://www.w3.org/2000/svg" p-id="13402" xmlns:xlink="http://www.w3.org/1999/xlink" width="200" height="200"><path d="M376.00256 588.8a25.6 25.6 0 0 1 34.75456 10.12736c30.02368 54.6816 24.07424 111.70816-16.19968 166.7072l-2.4576 3.29728c-28.5184 37.60128-24.6784 70.51264 14.06976 108.19584a25.6 25.6 0 1 1-35.69664 36.70016c-55.72608-54.20032-63.63136-114.85184-21.31968-172.93312l2.1504-2.89792c30.76096-40.5504 35.03104-77.1584 14.57152-114.432a25.6 25.6 0 0 1 10.12736-34.75456zM652.50304 672.4096a25.6 25.6 0 0 1 31.82592 17.26464c20.15232 67.9936 16.55808 120.4224-14.32576 155.1872l-2.048 2.2528c-18.56512 19.67104-22.84544 31.3344-20.18304 36.36224a25.6 25.6 0 1 1-45.23008 23.99232c-15.58528-29.37856-3.74784-61.66528 28.16-95.49824 17.7152-18.76992 20.48-53.93408 4.53632-107.74528a25.6 25.6 0 0 1 17.26464-31.81568z" fill="#ABE4FE" p-id="13403"></path><path d="M419.84 471.04a245.76 225.28 90 1 0 450.56 0 245.76 225.28 90 1 0-450.56 0Z" fill="#11BC68" p-id="13404"></path><path d="M655.9744 561.55136a15.36 15.36 0 0 1-21.7088 0l-54.31296-54.30272A51.2 51.2 0 0 1 645.12 428.81024a51.21024 51.21024 0 0 1 65.16736 78.4384l-54.30272 54.30272z" fill="#FECD34" p-id="13405"></path><path d="M153.6 378.88a245.76 225.28 90 1 0 450.56 0 245.76 225.28 90 1 0-450.56 0Z" fill="#E30027" p-id="13406"></path><path d="M369.3568 450.4576l-31.98976 16.80384a20.48 20.48 0 0 1-29.71648-21.58592l6.10304-35.61472a20.48 20.48 0 0 0-5.888-18.1248l-25.87648-25.23136a20.48 20.48 0 0 1 11.35616-34.92864l35.75808-5.19168a20.48 20.48 0 0 0 15.42144-11.20256l15.99488-32.4096a20.48 20.48 0 0 1 36.72064 0l15.99488 32.4096a20.48 20.48 0 0 0 15.42144 11.20256l35.75808 5.19168a20.48 20.48 0 0 1 11.35616 34.92864l-25.87648 25.23136a20.48 20.48 0 0 0-5.888 18.1248l6.10304 35.61472a20.48 20.48 0 0 1-29.71648 21.58592l-31.97952-16.81408a20.48 20.48 0 0 0-19.06688 0z" fill="#FECD34" p-id="13407"></path></svg>