<?xml version="1.0" standalone="no"?><!DOCTYPE svg PUBLIC "-//W3C//DTD SVG 1.1//EN" "http://www.w3.org/Graphics/SVG/1.1/DTD/svg11.dtd"><svg t="1765509185734" class="icon" viewBox="0 0 1024 1024" version="1.1" xmlns="http://www.w3.org/2000/svg" p-id="14078" xmlns:xlink="http://www.w3.org/1999/xlink" width="200" height="200"><path d="M665.6 245.76a51.2 51.2 0 0 1 51.2 51.2v296.96a163.7376 163.7376 0 0 1-47.0016 110.56128L541.184 835.36896c-62.8736 63.97952-165.69344 64.88064-229.67296 2.00704l-1.01376-0.99328c-63.97952-63.98976-63.97952-167.7312 0-231.71072L389.12 526.05952 389.12 296.96a51.2 51.2 0 0 1 51.2-51.2h225.28z" fill="#E30027" p-id="14079"></path><path d="M327.68 665.6c90.49088 0 163.84 73.34912 163.84 163.84 0 14.82752-1.96608 29.184-5.66272 42.8544-58.05056 23.26528-126.88384 11.7248-174.34624-34.9184l-1.01376-0.99328c-43.264-43.27424-57.27232-104.72448-42.02496-159.76448A163.49184 163.49184 0 0 1 327.68 665.6zM696.32 522.24c6.94272 0 13.7728 0.43008 20.48 1.26976V593.92a163.7376 163.7376 0 0 1-47.0016 110.56128l-92.52864 94.16704A163.2768 163.2768 0 0 1 532.48 686.08c0-90.49088 73.34912-163.84 163.84-163.84zM515.8912 363.03872l1.7408 1.6384 35.86048 35.33824 34.89792-32.33792a46.08 46.08 0 0 1 61.44-1.09568l1.792 1.6384 65.16736 62.52544v55.296a25.57952 25.57952 0 0 1-21.78048-5.3248l-1.36192-1.2288-73.99424-70.98368-34.92864 32.38912a46.08 46.08 0 0 1-61.952 0.65536l-1.72032-1.61792-35.81952-35.29728-68.67968 65.792a25.6 25.6 0 0 1-27.4432 5.19168v-49.80736l64.3072-61.58336a46.08 46.08 0 0 1 62.464-1.18784z" fill="#FC9A24" p-id="14080"></path><path d="M337.92 122.88m71.68 0l286.72 0q71.68 0 71.68 71.68l0 40.96q0 71.68-71.68 71.68l-286.72 0q-71.68 0-71.68-71.68l0-40.96q0-71.68 71.68-71.68Z" fill="#ABE4FE" p-id="14081"></path></svg>