<?xml version="1.0" standalone="no"?><!DOCTYPE svg PUBLIC "-//W3C//DTD SVG 1.1//EN" "http://www.w3.org/Graphics/SVG/1.1/DTD/svg11.dtd"><svg t="1765509224029" class="icon" viewBox="0 0 1024 1024" version="1.1" xmlns="http://www.w3.org/2000/svg" p-id="14404" xmlns:xlink="http://www.w3.org/1999/xlink" width="200" height="200"><path d="M257.31072 397.35296a20.48 20.48 0 0 1 7.49568 27.97568l-39.12704 67.76832 66.59072 55.86944a20.48 20.48 0 0 1-26.3168 31.37536L140.42112 475.0336a20.48 20.48 0 0 1 26.33728-31.37536l27.05408 22.70208 35.51232-61.51168a20.48 20.48 0 0 1 27.97568-7.49568zM770.63168 397.35296a20.48 20.48 0 0 0-7.49568 27.97568l39.12704 67.76832-66.59072 55.86944a20.48 20.48 0 0 0 26.32704 31.37536L887.51104 475.0336a20.48 20.48 0 1 0-26.32704-31.37536l-27.06432 22.70208-35.51232-61.51168a20.48 20.48 0 0 0-27.97568-7.49568z" fill="#994B0D" p-id="14405"></path><path d="M513.31072 645.12m-245.76 0a245.76 245.76 0 1 0 491.52 0 245.76 245.76 0 1 0-491.52 0Z" fill="#CCEEFC" p-id="14406"></path><path d="M318.75072 460.8a194.56 153.6 0 1 0 389.12 0 194.56 153.6 0 1 0-389.12 0Z" fill="#11BC68" p-id="14407"></path><path d="M390.43072 256h245.76a30.72 30.72 0 0 1 30.72 30.72v107.52c0 76.34944-61.89056 138.24-138.24 138.24h-30.72c-76.3392 0-138.24-61.89056-138.24-138.24V286.72a30.72 30.72 0 0 1 30.72-30.72z" fill="#CCEEFC" p-id="14408"></path><path d="M513.31072 409.6m-30.72 0a30.72 30.72 0 1 0 61.44 0 30.72 30.72 0 1 0-61.44 0Z" fill="#994B0D" p-id="14409"></path><path d="M533.79072 532.48m30.72 0l71.68 0q30.72 0 30.72 30.72l0 112.64q0 30.72-30.72 30.72l-71.68 0q-30.72 0-30.72-30.72l0-112.64q0-30.72 30.72-30.72Z" fill="#11BC68" p-id="14410"></path><path d="M431.39072 122.88h163.84a81.92 81.92 0 0 1 81.92 81.92v112.64h-327.68V204.8a81.92 81.92 0 0 1 81.92-81.92z" fill="#BF021F" p-id="14411"></path><path d="M308.51072 296.96m30.72 0l348.16 0q30.72 0 30.72 30.72l0 0q0 30.72-30.72 30.72l-348.16 0q-30.72 0-30.72-30.72l0 0q0-30.72 30.72-30.72Z" fill="#E30027" p-id="14412"></path></svg>